<?xml version="1.0" encoding="UTF-8"?>
<!DOCTYPE svg PUBLIC "-//W3C//DTD SVG 1.1//EN" "http://www.w3.org/Graphics/SVG/1.1/DTD/svg11.dtd">
<!-- Creator: CorelDRAW X7 -->
<svg xmlns="http://www.w3.org/2000/svg" xml:space="preserve" width="17.3102in" height="2.46712in" version="1.1" style="shape-rendering:geometricPrecision; text-rendering:geometricPrecision; image-rendering:optimizeQuality; fill-rule:evenodd; clip-rule:evenodd"
viewBox="0 0 15330 2185"
 xmlns:xlink="http://www.w3.org/1999/xlink">
 <defs>
  <style type="text/css">
   <![CDATA[
    .fil0 {fill:#B4265C;fill-rule:nonzero}
   ]]>
  </style>
 </defs>
 <g id="Layer_x0020_1">
  <metadata id="CorelCorpID_0Corel-Layer"/>
  <g id="_1783025550704">
   <path class="fil0" d="M723 1841c239,0 333,-148 333,-279 0,-413 -951,-262 -951,-953 0,-381 288,-606 680,-606 188,0 364,51 566,199l-193 290c-119,-105 -259,-148 -390,-148 -185,0 -293,86 -293,228 0,424 953,230 953,973 0,375 -242,637 -708,637 -248,0 -501,-74 -720,-373l233 -241c117,133 256,273 490,273z"/>
   <path class="fil0" d="M3055 2185c-608,0 -1104,-474 -1104,-1090 0,-602 473,-1095 1101,-1095 619,0 1104,482 1104,1092 0,611 -488,1093 -1101,1093zm727 -1090l0 0c0,-413 -320,-753 -730,-753 -414,0 -730,348 -730,756 0,414 328,745 733,745 405,0 727,-334 727,-748z"/>
   <path class="fil0" d="M8339 1718l-941 0 -177 466 -418 0 872 -2183 393 0 870 2183 -419 0 -180 -466zm-802 -369l0 0 663 0 -330 -867 -333 867z"/>
   <path class="fil0" d="M9450 1l754 0c490,0 708,207 708,564 0,256 -115,395 -313,469 272,64 398,280 398,539 0,428 -348,611 -784,611l-763 0 0 -2183zm1078 617l0 0c0,-165 -97,-248 -268,-248l-424 0 0 489 433 0c159,0 259,-79 259,-241zm86 905l0 0c0,-153 -83,-298 -374,-298l-404 0 0 590 409 0c283,0 369,-139 369,-292z"/>
   <polygon class="fil0" points="11718,1 13101,1 13101,373 12104,373 12104,859 12889,859 12889,1231 12104,1231 12104,1812 13101,1812 13101,2184 11718,2184 "/>
   <polygon class="fil0" points="13932,1 14318,1 14318,1812 15330,1812 15330,2184 13932,2184 "/>
   <path class="fil0" d="M5400 1278l-248 0 0 906 -386 0 0 -2183 884 0c446,0 688,257 688,640 0,328 -177,561 -505,617l614 926 -448 0 -599 -906zm551 -634l0 0c0,-168 -115,-271 -295,-271l-504 0 0 534 504 0c180,0 295,-98 295,-263z"/>
  </g>
 </g>
</svg>
